This West German film was first released in 1985 under the title Bittere Ernte. Armin-Mueller Stahl plays a Polish farmer living under the wartime Nazi occupation. Stahl isn't too offended at the prospect of answering to the Germans; in fact, he has profited by confiscating the property of his neighbor, a wealthy Jew. His conscience doesn't disturb him until a starving Jewish woman (Elisabeth Trissenaar) stumbles onto his property. At first Stahl shelters her, but his baser instincts surface; she is in no position to refuse when he ultimately rapes her. She even comes to fall in love with Stahl--and kills herself when another woman moves in with him. Stahl survives the war with health and wealth intact, only mildly disturbed by the misery he has caused. 

   General
      Complete name : Bittere Ernte.avi
      Format : AVI
      Format/Info : Audio Video Interleave
      File size : 1.47 GiB
      Duration : 1h 40mn
      Overall bit rate : 2 086 Kbps
      Movie name : Bittere Ernte (1985) 
      Director : Agnieszka Holland
      Genre : Drama
      Writing application : VirtualDubMod 1.5.10.2 (build 2540/release)
      Writing library : VirtualDubMod build 2540/release
      Original source form/Name : Movie
      Copyright : rip by cine-clasico russound by Ïóøîê-92 sound sync by boeing747m 
      Comment :
   Video #0
      ID : 0
      Format : MPEG-4 Visual
      Format profile : AdvancedSimple@L5
      Format settings, BVOP : Yes
      Format settings, QPel : No
      Format settings, GMC : No warppoints
      Format settings, Matrix : Default (MPEG)
      Codec ID : XVID
      Codec ID/Hint : XviD
      Duration : 1h 40mn
      Bit rate : 1 885 Kbps
      Width : 672 pixels
      Height : 496 pixels
      Display aspect ratio : 4:3
      Frame rate : 25.000 fps
      Resolution : 24 bits
      Colorimetry : 4:2:0
      Scan type : Progressive
      Bits/(Pixel*Frame) : 0.226
      Stream size : 1.33 GiB (90%)
      Writing library : XviD 1.2.0SMP (UTC 2006-01-08)
   Audio #1
      ID : 1
      Format : AC-3
      Format/Info : Audio Coding 3
      Codec ID : 2000
      Duration : 1h 40mn
      Bit rate mode : Constant
      Bit rate : 192 Kbps
      Channel(s) : 2 channels
      Channel positions : L R
      Sampling rate : 48.0 KHz
      Stream size : 139 MiB (9%)
      Alignment : Split accross interleaves
      Interleave, duration : 40 ms (1.00 video frame)
      Interleave, preload duration : 500 ms

IMDB: tt0088811

German audio; English, Spanish and Portuguese subtitles

Posted originally at Karagarga by janatas, suntitles added by scalisto
